<svg xmlns="http://www.w3.org/2000/svg" width="20" height="20" viewBox="0 0 20 20">
  <path id="ic_user" d="M1787.684,87.51a1.116,1.116,0,0,1-.456-.1,1.145,1.145,0,0,1-.576-1.507l2.264-5.145a1.139,1.139,0,0,1,.513-.55l3.507-1.845a.227.227,0,0,1,.242.02,5.5,5.5,0,0,0,6.756,0,.226.226,0,0,1,.241-.02l3.511,1.845a1.138,1.138,0,0,1,.51.55l2.264,5.145h0a1.145,1.145,0,0,1-1.033,1.605Zm4.389-14.7c0-2.926,2.006-5.3,4.481-5.3s4.481,2.372,4.481,5.3-2.006,5.3-4.481,5.3S1792.073,75.732,1792.073,72.807Z" transform="translate(-1786.554 -67.51)"/>
</svg>
